HIERARCHY
ROOT Hips
{
	OFFSET -0.179506 -22.333345 2.821913
	CHANNELS 6 Xposition Yposition Zposition Zrotation Yrotation Xrotation 
	JOINT LeftUpLeg
	{
		OFFSET 6.951974 -9.140623 -0.681533
		CHANNELS 3 Zrotation Yrotation Xrotation
		JOINT LeftLeg
		{
			OFFSET 3.427654 -37.519855 -0.449580
			CHANNELS 3 Zrotation Yrotation Xrotation
			JOINT LeftFoot
			{
				OFFSET -1.359570 -39.796059 -4.369333
				CHANNELS 3 Zrotation Yrotation Xrotation
				JOINT LeftToe
				{
					OFFSET 2.635814 -5.579078 11.928840
					CHANNELS 3 Zrotation Yrotation Xrotation
					End Site
					{
						OFFSET 0.000000 0.000000 0.000000
					}
				}
			}
		}
	}
	JOINT RightUpLeg
	{
		OFFSET -6.767048 -9.052170 -0.431982
		CHANNELS 3 Zrotation Yrotation Xrotation
		JOINT RightLeg
		{
			OFFSET -3.829005 -38.256897 -0.885003
			CHANNELS 3 Zrotation Yrotation Xrotation
			JOINT RightFoot
			{
				OFFSET 1.577377 -39.841461 -4.231180
				CHANNELS 3 Zrotation Yrotation Xrotation
				JOINT RightToe
				{
					OFFSET -2.537174 -4.814398 12.334795
					CHANNELS 3 Zrotation Yrotation Xrotation
					End Site
					{
						OFFSET 0.000000 0.000000 0.000000
					}
				}
			}
		}
	}
	JOINT Spine
	{
		OFFSET -0.253288 10.896323 -2.669631
		CHANNELS 3 Zrotation Yrotation Xrotation
		JOINT Spine1
		{
			OFFSET 0.548704 13.518043 0.109247
			CHANNELS 3 Zrotation Yrotation Xrotation
			JOINT Spine2
			{
				OFFSET 0.145701 5.292222 2.542457
				CHANNELS 3 Zrotation Yrotation Xrotation
				JOINT Neck
				{
					OFFSET -0.277840 21.387037 -4.285703
					CHANNELS 3 Zrotation Yrotation Xrotation
					JOINT Head
					{
						OFFSET 0.515184 6.496960 5.134897
						CHANNELS 3 Zrotation Yrotation Xrotation
						End Site
						{
							OFFSET 0.000000 0.000000 0.000000
						}
					}
				}
				JOINT LeftShoulder
				{
					OFFSET 7.884473 12.174932 -3.408961
					CHANNELS 3 Zrotation Yrotation Xrotation
					JOINT LeftArm
					{
						OFFSET 9.097692 3.046888 -0.886815
						CHANNELS 3 Zrotation Yrotation Xrotation
						JOINT LeftForeArm
						{
							OFFSET 25.961220 -1.277207 -2.745643
							CHANNELS 3 Zrotation Yrotation Xrotation
							JOINT LeftHand
							{
								OFFSET 24.923361 0.898606 -0.117091
								CHANNELS 3 Zrotation Yrotation Xrotation
								End Site
								{
									OFFSET 0.000000 0.000000 0.000000
								}
							}
						}
					}
				}
				JOINT RightShoulder
				{
					OFFSET -8.175920 11.883285 -3.861528
					CHANNELS 3 Zrotation Yrotation Xrotation
					JOINT RightArm
					{
						OFFSET -9.601238 3.255117 -0.914307
						CHANNELS 3 Zrotation Yrotation Xrotation
						JOINT RightForeArm
						{
							OFFSET -25.374195 -1.332924 -2.140099
							CHANNELS 3 Zrotation Yrotation Xrotation
							JOINT RightHand
							{
								OFFSET -25.529810 0.777228 -0.555919
								CHANNELS 3 Zrotation Yrotation Xrotation
								End Site
								{
									OFFSET 0.000000 0.000000 0.000000
								}
							}
						}
					}
				}
			}
		}
	}
}
MOTION
Frames: 13
Frame Time: 0.033333
-123.230812 -51.156300 95.625114 171.743117 3.645192 79.678974 13.708830 13.953356 -17.913471 7.787793 37.455940 41.980655 -0.952252 8.398174 -8.562692 nan nan nan -8.202562 -12.307321 13.518853 -6.168038 -17.086710 34.736334 0.484597 -4.848284 -14.211904 nan nan nan 0.697866 8.052767 7.494439 4.044956 -4.228526 8.438239 1.328596 3.483307 -7.755334 -3.718453 1.404904 6.808711 -0.854760 -0.088028 25.589641 -11.591341 -25.958664 2.338894 -50.200481 -30.362332 -0.947674 50.782870 -54.858381 -33.387534 10.064768 -28.456988 -28.985309 12.684387 29.937742 1.947329 68.537599 34.110767 23.052726 -143.953565 67.353949 -117.897438 2.662164 27.367320 -34.887048 
-122.982796 -51.614529 95.576141 169.003351 3.570671 79.602517 15.377391 13.725011 -18.444078 7.542783 36.711971 44.010620 -1.808639 8.023406 -7.478690 nan nan nan -8.718452 -12.304437 13.878661 -5.224439 -17.054482 32.944386 0.162841 -4.693670 -15.231348 nan nan nan 0.647545 8.271211 7.113978 4.196120 -4.392715 10.134635 1.321123 3.389891 -8.301798 -3.664186 2.271409 7.200262 -1.256159 0.433215 24.958180 -11.344715 -25.496000 2.437902 -48.784589 -29.456289 -2.155968 52.619662 -54.194910 -35.236939 10.912968 -28.334919 -28.929763 12.692401 29.870846 1.945887 68.859007 33.745671 23.354047 -145.365768 68.009268 -119.370661 3.228971 27.819300 -35.667497 
-122.765953 -52.077332 95.526176 166.550452 3.554460 79.649580 16.801543 13.472002 -19.100596 6.787352 35.103099 45.409864 -2.955151 7.146762 -6.812161 nan nan nan -9.166275 -12.471990 14.000805 -4.405580 -16.428755 31.461245 -0.263296 -4.071434 -15.954405 nan nan nan 0.700733 8.324707 7.264189 4.240593 -4.538233 10.712704 1.398109 3.130180 -8.615392 -3.869493 3.021977 7.699468 -1.460593 1.204088 24.464610 -11.279473 -24.745290 2.509699 -47.501826 -28.341603 -3.398332 53.906510 -53.886749 -36.521950 11.762717 -28.232544 -28.838760 12.713869 29.648264 2.130757 69.158080 33.484186 23.476490 -147.394686 68.903566 -121.782299 3.441417 28.298771 -36.639350 
-122.598969 -52.557411 95.404663 164.479556 3.428206 79.915511 17.832122 12.733035 -19.929621 5.263236 32.873696 45.878151 -4.162794 5.640484 -6.636695 nan nan nan -9.529504 -12.216925 13.941997 -3.408627 -15.591180 29.889406 0.017417 -3.456964 -16.801969 nan nan nan 0.564039 8.174801 7.103614 4.241515 -4.886054 11.357658 1.422007 2.941528 -8.881447 -3.972951 3.921500 8.155835 -1.759088 1.785669 23.987290 -11.243997 -23.972679 2.493119 -46.117945 -27.190812 -4.505215 55.037989 -53.445617 -37.995465 11.905053 -28.281353 -28.585647 12.723124 29.424950 2.344498 68.986331 33.449803 23.620455 -149.627576 69.867308 -124.617558 2.628364 28.203840 -37.310868 
-122.464569 -53.038033 95.237000 162.651828 3.240641 80.291728 18.562398 11.649986 -20.733779 3.252371 30.273743 45.469490 -5.193634 3.786579 -6.859476 nan nan nan -9.835384 -11.700477 13.640388 -2.256059 -14.510083 28.536385 0.418892 -3.336023 -17.744480 nan nan nan 0.369012 7.978849 6.871699 4.225072 -5.175052 11.727923 1.375501 2.770222 -8.922709 -3.992696 4.642465 8.536598 -2.087170 2.353455 23.576308 -11.372470 -23.480361 2.621386 -44.565015 -26.073095 -5.415709 55.948969 -52.753209 -39.307797 12.258418 -28.511147 -28.346294 12.680294 29.232307 2.279744 68.814659 33.131523 23.916353 -151.483181 70.644211 -127.083566 1.807725 27.924276 -37.724319 
-122.365410 -53.510960 95.055290 160.880791 3.045715 80.593253 19.000149 10.438222 -21.265555 1.150782 27.207863 44.382376 -6.065914 2.384544 -7.460863 nan nan nan -10.202612 -11.228186 13.221382 -1.168855 -12.914780 27.534001 0.697681 -3.255829 -18.725063 nan nan nan 0.288051 7.714926 6.977344 4.123894 -5.349303 11.527860 1.281605 2.557265 -8.673131 -4.068617 5.330079 8.956789 -2.298190 3.145305 23.090306 -11.527499 -22.885402 2.641579 -42.957255 -24.803446 -6.016822 56.395228 -52.198592 -39.972328 13.298414 -28.536040 -28.412746 12.710389 29.164202 2.225907 68.765223 32.711039 24.475527 -152.524791 71.271111 -128.749262 1.018490 27.834867 -38.320838 
-122.332008 -53.961365 94.852318 159.154283 2.838540 80.801896 19.133562 9.198362 -21.570520 -0.796200 23.678078 42.988329 -6.666673 1.661818 -8.259217 nan nan nan -10.776823 -10.917745 12.649426 -0.296377 -11.248102 27.094641 1.112994 -2.609332 -19.680115 nan nan nan 0.308700 7.431045 7.339638 3.962274 -5.447858 11.004930 1.149671 2.303454 -8.281083 -4.074300 6.057344 9.260393 -2.647460 3.770302 22.864462 -11.610220 -22.139420 2.595936 -41.527265 -23.640633 -6.496861 56.394764 -51.705060 -39.931660 14.301848 -28.428910 -28.921732 12.719000 28.928864 2.111017 68.819843 32.380069 25.101504 -153.306385 71.925355 -129.798675 0.310838 27.935080 -39.321530 
-122.356812 -54.379284 94.651787 157.483927 2.650556 80.880221 19.210183 7.923157 -21.581249 -2.451342 20.319545 41.558057 -7.219314 1.326396 -8.995702 nan nan nan -11.351894 -10.353969 12.017976 0.469824 -9.939552 27.079021 1.664476 -1.628566 -20.600372 nan nan nan 0.392543 7.072155 7.775134 3.790352 -5.503556 10.697509 0.975183 2.183394 -8.051384 -3.937632 6.652020 9.505246 -3.118262 4.199065 22.787261 -11.850484 -21.568948 2.554127 -40.172410 -22.551875 -6.955345 56.349076 -51.020041 -40.081287 14.647216 -28.429273 -29.112701 12.702218 28.663840 1.926776 68.567834 31.975993 25.450090 -154.313122 72.442784 -130.768807 -0.079289 27.936071 -39.538020 
-122.408882 -54.763443 94.454758 155.792882 2.574618 80.839826 19.214789 6.897352 -21.335882 -3.564427 17.044786 40.262061 -7.863694 1.117345 -9.541245 nan nan nan -11.728335 -9.717588 11.495291 1.124489 -8.663742 27.076038 2.071482 -0.689805 -21.490641 nan nan nan 0.636733 6.688680 8.320080 3.632954 -5.490704 10.486667 0.798914 2.118414 -7.936630 -3.813882 7.200344 9.728392 -3.552980 4.630570 22.749662 -12.236229 -21.096679 2.553768 -38.821489 -21.364173 -7.368525 56.238364 -50.367290 -40.502958 14.944600 -28.344205 -29.276279 12.774107 28.424539 1.740654 68.222165 31.471306 25.789858 -155.434537 72.864861 -131.990425 -0.350608 27.833860 -39.197859 
-122.483932 -55.104084 94.257843 154.057030 2.547533 80.670086 19.058635 6.138257 -20.811549 -4.163276 13.710460 39.079262 -8.274725 1.048850 -10.022059 nan nan nan -12.080365 -9.284248 11.075572 1.595500 -7.396939 27.133734 2.257368 0.236748 -22.372882 nan nan nan 1.043630 6.360116 8.803250 3.413645 -5.423249 10.422176 0.557730 2.089967 -7.737452 -3.577366 7.825746 10.038611 -4.015076 4.969567 22.627494 -12.660027 -20.769472 2.687815 -37.453738 -20.313616 -7.819504 55.876614 -49.619237 -40.726987 15.326684 -28.404749 -29.889660 12.956518 28.161017 1.553406 67.878888 31.004496 26.024910 -156.839222 73.395848 -133.523463 -1.177613 27.946040 -40.011991 
-122.567009 -55.390854 94.069115 152.195451 2.490608 80.392295 18.839995 5.675453 -19.951290 -4.549433 10.559568 37.910039 -8.725680 1.037878 -10.345671 nan nan nan -12.556141 -8.941049 10.670931 2.002082 -6.334265 27.328658 2.397295 1.303902 -23.248565 nan nan nan 1.553859 5.947405 8.992154 3.062821 -5.431700 10.842891 0.241092 2.222424 -7.524162 -3.551615 8.560549 10.521345 -4.354361 5.371841 22.120978 -13.191084 -20.757972 2.856465 -35.985092 -18.877171 -8.323687 55.780593 -48.786522 -41.526288 15.503948 -28.372113 -30.092053 13.099823 28.349035 1.481213 66.993680 30.636509 25.746610 -158.151372 73.840397 -135.432213 -1.570647 27.863956 -40.247186 
-122.634399 -55.625576 93.886215 150.385103 2.612297 80.158389 18.782134 5.378165 -19.081296 -4.673738 7.767884 36.934796 -9.114670 0.844840 -10.423491 nan nan nan -12.822618 -8.669486 10.424437 2.561553 -5.523613 27.160715 2.504225 2.065843 -24.076343 nan nan nan 2.033189 5.953082 9.084706 3.024339 -5.141278 11.298536 0.317562 1.685551 -7.465249 -3.895487 8.888064 11.155286 -4.763413 6.109274 21.405490 -14.002593 -20.773114 3.425135 -34.843376 -17.513104 -9.013230 55.868108 -48.041462 -42.627435 15.697796 -28.350827 -29.822126 12.704756 28.472575 1.262496 66.158437 30.268502 25.377109 -159.091704 74.228366 -137.217953 -1.219188 27.890184 -39.745368 
-122.690773 -55.831482 93.698441 148.652465 2.769196 79.925779 18.848418 5.138833 -18.191301 -4.567115 5.739497 36.236478 -9.127009 0.638519 -10.428434 nan nan nan -12.989879 -8.388929 10.318666 3.158339 -5.101217 26.763461 2.354594 2.310829 -24.896228 nan nan nan 2.462309 5.784747 9.066930 2.990289 -4.960414 11.976149 0.337856 1.363587 -7.577421 -4.007783 9.140896 11.833596 -5.281417 6.906287 20.721828 -14.666335 -20.473756 3.748853 -33.969599 -16.484264 -9.538014 55.468856 -47.216072 -43.173501 15.714810 -28.491952 -29.632401 12.527077 28.554785 1.319582 65.430857 30.029909 25.159837 -159.782639 74.630219 -138.422171 -1.535105 27.941410 -39.914444 
